<svg width="305" height="44" viewBox="0 0 305 44" fill="none" xmlns="http://www.w3.org/2000/svg">
<path d="M5.56 43H0.52V1H25.468C35.254 1 38.866 7.426 38.866 13.894C38.866 20.53 33.784 27.04 23.578 27.04C17.782 27.04 13.666 23.932 8.416 23.932C6.4 23.932 5.56 25.36 5.56 26.452V43ZM3.838 5.83C2.662 5.83 2.452 6.46 2.788 7.174C3.796 9.4 5.56 11.71 5.56 17.968V22.756C6.904 21.286 9.34 20.404 11.944 20.404C18.118 20.404 21.856 23.008 28.114 23.008C34.708 23.008 36.766 19.228 36.766 13.894C36.766 6.544 30.256 5.83 23.578 5.83H3.838ZM42.643 1H67.591C77.377 1 80.989 7.426 80.989 13.894C80.989 20.53 77.335 27.04 67.381 27.04C59.317 27.04 56.041 23.008 52.177 23.008C50.287 23.008 49.783 24.31 49.783 25.402C49.783 32.374 60.073 38.8 69.355 38.8C74.521 38.8 77.671 37.96 80.443 36.784V41.908C78.007 43.084 75.151 43.63 71.329 43.63C58.267 43.63 47.683 32.794 47.683 25.192V43H42.643V1ZM45.919 5.83C44.743 5.83 44.533 6.46 44.869 7.174C45.877 9.4 47.683 11.71 47.683 17.968V25.192C47.683 22 50.497 19.564 54.403 19.564C59.989 19.564 63.979 23.008 70.237 23.008C75.697 23.008 78.889 19.228 78.889 13.894C78.889 6.544 71.077 5.83 65.701 5.83H45.919ZM106.134 43.63C93.1983 43.63 84.3783 34.978 84.5463 22C84.7143 9.442 93.4502 0.369996 106.134 0.369996C119.07 0.369996 127.722 9.022 127.722 22C127.722 35.188 118.818 43.63 106.134 43.63ZM86.6883 22C86.6043 32.122 95.8443 38.8 106.134 38.8C113.988 38.8 125.622 33.802 125.622 22C125.622 11.836 116.298 5.2 106.134 5.2C95.9703 5.2 86.7723 12.046 86.6883 22ZM153.097 43.63C140.161 43.63 131.509 34.978 131.509 22C131.509 7.72 141.883 0.369996 154.987 0.369996C161.077 0.369996 168.469 1.756 171.409 3.394V9.064C167.209 6.754 159.355 5.242 153.097 5.242C144.109 5.242 133.609 9.61 133.609 22C133.609 32.122 143.395 38.8 155.071 38.8C167.041 38.8 171.871 33.34 171.871 28.552C171.871 25.066 169.141 22 164.689 22C158.305 22 155.449 26.326 147.847 26.326C143.227 26.326 140.119 23.302 139.447 21.37L139.615 21.244C140.245 22.042 141.631 22.714 143.395 22.714C150.829 22.714 153.517 18.64 161.371 18.64C166.747 18.64 173.929 21.244 173.929 29.434C173.929 39.43 162.967 43.63 153.097 43.63ZM178.323 1H203.271C213.057 1 216.669 7.426 216.669 13.894C216.669 20.53 213.015 27.04 203.061 27.04C194.997 27.04 191.721 23.008 187.857 23.008C185.967 23.008 185.463 24.31 185.463 25.402C185.463 32.374 195.753 38.8 205.035 38.8C210.201 38.8 213.351 37.96 216.123 36.784V41.908C213.687 43.084 210.831 43.63 207.009 43.63C193.947 43.63 183.363 32.794 183.363 25.192V43H178.323V1ZM181.599 5.83C180.423 5.83 180.213 6.46 180.549 7.174C181.557 9.4 183.363 11.71 183.363 17.968V25.192C183.363 22 186.177 19.564 190.083 19.564C195.669 19.564 199.659 23.008 205.917 23.008C211.377 23.008 214.569 19.228 214.569 13.894C214.569 6.544 206.757 5.83 201.381 5.83H181.599ZM226.148 22C219.596 22 228.962 40.522 230.978 43H223.586C221.36 38.296 220.226 30.484 220.226 24.772C220.226 7.384 231.566 0.369996 243.368 0.369996C248.702 0.369996 252.23 1.42 256.22 2.932V43H251.18V22.756C249.458 24.814 246.686 25.948 242.948 25.948C237.236 25.948 231.272 22 226.148 22ZM241.604 5.158C231.062 5.158 221.864 10.618 223.166 22.336C223.88 20.278 225.896 18.556 229.676 18.556C235.766 18.556 243.242 22.672 247.82 22.672C249.29 22.672 251.18 21.538 251.18 18.304V6.88C248.156 5.914 245.258 5.158 241.604 5.158ZM279.904 38.422L263.02 4.57C263.566 8.896 266.296 13.348 266.296 19.732V43H261.256V1H261.886C261.886 1 262.012 0.957998 262.138 1H266.716L282.676 32.92L298.594 1H303.172C303.298 0.957998 303.424 1 303.424 1H304.054V43H299.014V19.732C299.014 13.348 301.744 8.896 302.29 4.57L285.406 38.422H279.904Z" fill="#BF7139"/>
</svg>
